<?xml version="1.0" encoding="UTF-8"?>
<svg xmlns="http://www.w3.org/2000/svg" xmlns:xlink="http://www.w3.org/1999/xlink" width="60px" height="60px" viewBox="0 0 60 60" version="1.1">
<g id="surface1">
<path style=" stroke:none;fill-rule:nonzero;fill:#fff;fill-opacity:1;" d="M 13.011719 9.574219 C 9.566406 14.523438 9.996094 20.96875 12.628906 26.230469 L 12.820312 26.605469 L 12.941406 26.84375 L 13.019531 26.980469 L 13.15625 27.226562 C 13.238281 27.367188 13.324219 27.511719 13.410156 27.65625 L 13.550781 27.890625 C 13.648438 28.042969 13.746094 28.195312 13.84375 28.347656 L 13.96875 28.539062 C 14.105469 28.746094 14.246094 28.949219 14.390625 29.148438 L 14.402344 29.164062 L 14.472656 29.261719 C 14.597656 29.433594 14.726562 29.605469 14.859375 29.773438 L 15.003906 29.957031 C 15.121094 30.105469 15.238281 30.25 15.359375 30.394531 L 15.496094 30.558594 C 15.65625 30.75 15.820312 30.9375 15.992188 31.125 L 16 31.132812 L 16.019531 31.15625 C 16.183594 31.335938 16.351562 31.511719 16.523438 31.6875 L 16.683594 31.847656 C 16.816406 31.980469 16.953125 32.113281 17.085938 32.242188 L 17.25 32.398438 C 17.433594 32.570312 17.617188 32.738281 17.800781 32.902344 L 17.8125 32.910156 L 17.90625 32.992188 C 18.070312 33.132812 18.238281 33.273438 18.40625 33.414062 L 18.613281 33.578125 C 18.753906 33.6875 18.890625 33.796875 19.03125 33.90625 L 19.253906 34.074219 C 19.410156 34.1875 19.566406 34.300781 19.722656 34.410156 L 19.894531 34.53125 L 19.941406 34.566406 C 20.089844 34.667969 20.242188 34.765625 20.394531 34.867188 L 20.59375 34.996094 C 20.828125 35.144531 21.066406 35.292969 21.304688 35.433594 L 21.503906 35.542969 C 21.679688 35.644531 21.855469 35.746094 22.035156 35.84375 L 22.332031 35.996094 L 22.714844 36.195312 L 22.804688 36.238281 L 22.960938 36.3125 C 23.160156 36.410156 23.363281 36.503906 23.566406 36.59375 L 23.695312 36.652344 C 23.925781 36.753906 24.164062 36.851562 24.398438 36.945312 L 24.574219 37.011719 C 24.792969 37.097656 25.015625 37.183594 25.238281 37.261719 L 25.324219 37.289062 C 25.570312 37.375 25.816406 37.453125 26.066406 37.535156 L 26.246094 37.585938 C 26.5 37.664062 26.753906 37.753906 27.015625 37.804688 C 43.679688 40.84375 48.519531 27.789062 48.519531 27.789062 C 44.457031 33.085938 37.238281 34.484375 30.402344 32.925781 C 30.140625 32.867188 29.890625 32.789062 29.636719 32.714844 L 29.449219 32.65625 C 29.203125 32.578125 28.957031 32.5 28.710938 32.417969 L 28.613281 32.378906 C 28.394531 32.304688 28.179688 32.222656 27.964844 32.140625 L 27.78125 32.070312 C 27.546875 31.976562 27.3125 31.878906 27.082031 31.777344 L 26.941406 31.714844 C 26.746094 31.625 26.546875 31.535156 26.351562 31.441406 L 26.183594 31.359375 C 26.027344 31.285156 25.878906 31.207031 25.726562 31.128906 L 25.421875 30.96875 C 25.238281 30.867188 25.054688 30.765625 24.875 30.660156 L 24.691406 30.558594 C 24.449219 30.417969 24.210938 30.269531 23.976562 30.121094 L 23.785156 29.992188 C 23.613281 29.882812 23.445312 29.773438 23.277344 29.65625 L 23.113281 29.542969 C 22.953125 29.429688 22.792969 29.3125 22.636719 29.195312 L 22.421875 29.035156 C 22.277344 28.921875 22.132812 28.8125 21.992188 28.695312 L 21.796875 28.542969 C 21.617188 28.394531 21.4375 28.242188 21.261719 28.089844 L 21.199219 28.039062 C 21.007812 27.871094 20.820312 27.699219 20.636719 27.523438 L 20.476562 27.371094 C 20.335938 27.238281 20.203125 27.105469 20.070312 26.972656 L 19.910156 26.8125 C 19.738281 26.636719 19.574219 26.460938 19.410156 26.285156 L 19.386719 26.257812 C 19.210938 26.070312 19.042969 25.875 18.878906 25.679688 L 18.746094 25.523438 C 18.621094 25.375 18.5 25.226562 18.382812 25.074219 L 18.25 24.90625 C 18.105469 24.722656 17.964844 24.535156 17.828125 24.347656 C 14.03125 19.167969 12.667969 12.027344 15.703125 6.160156 M 23.707031 5.398438 C 21.214844 8.984375 21.351562 13.785156 23.296875 17.578125 C 23.621094 18.214844 23.988281 18.832031 24.398438 19.417969 C 24.769531 19.953125 25.183594 20.589844 25.679688 21.019531 C 25.859375 21.21875 26.046875 21.410156 26.238281 21.601562 L 26.386719 21.746094 C 26.574219 21.925781 26.761719 22.105469 26.957031 22.277344 L 26.980469 22.296875 L 26.988281 22.304688 C 27.203125 22.492188 27.425781 22.675781 27.65625 22.855469 L 27.804688 22.972656 C 28.035156 23.148438 28.265625 23.320312 28.503906 23.484375 L 28.523438 23.5 L 28.84375 23.707031 L 28.992188 23.808594 C 29.164062 23.917969 29.335938 24.023438 29.511719 24.125 L 29.585938 24.167969 C 29.734375 24.253906 29.886719 24.339844 30.042969 24.421875 L 30.203125 24.507812 L 30.523438 24.675781 L 30.570312 24.695312 C 30.792969 24.804688 31.011719 24.910156 31.238281 25.007812 L 31.386719 25.066406 C 31.566406 25.144531 31.75 25.21875 31.933594 25.289062 L 32.167969 25.375 C 32.335938 25.4375 32.5 25.496094 32.671875 25.550781 L 32.898438 25.625 C 33.136719 25.699219 33.375 25.792969 33.625 25.832031 C 46.492188 27.964844 49.460938 18.058594 49.460938 18.058594 C 46.785156 21.914062 41.597656 23.753906 36.0625 22.316406 C 35.820312 22.253906 35.574219 22.183594 35.335938 22.109375 L 35.117188 22.035156 C 34.945312 21.980469 34.773438 21.921875 34.605469 21.863281 L 34.375 21.777344 C 34.191406 21.703125 34.007812 21.632812 33.828125 21.554688 L 33.679688 21.492188 C 33.453125 21.394531 33.230469 21.289062 33.007812 21.179688 L 32.671875 21.007812 L 32.476562 20.910156 C 32.335938 20.832031 32.191406 20.75 32.050781 20.667969 L 31.949219 20.609375 C 31.777344 20.507812 31.605469 20.402344 31.433594 20.296875 L 31.277344 20.191406 L 30.945312 19.96875 C 30.707031 19.804688 30.476562 19.636719 30.25 19.460938 L 30.09375 19.335938 C 27.671875 17.425781 25.75 14.8125 24.839844 11.847656 C 23.882812 8.773438 24.089844 5.324219 25.746094 2.523438 M 32.707031 2.28125 C 31.234375 4.445312 31.089844 7.128906 32.109375 9.515625 C 33.1875 12.050781 35.390625 14.039062 37.960938 14.984375 L 38.28125 15.09375 L 38.421875 15.136719 C 38.570312 15.1875 38.722656 15.242188 38.878906 15.269531 C 45.984375 16.644531 47.910156 11.625 48.421875 10.886719 C 46.734375 13.316406 43.898438 13.898438 40.417969 13.054688 C 40.144531 12.988281 39.839844 12.886719 39.574219 12.792969 C 39.234375 12.671875 38.902344 12.535156 38.574219 12.378906 C 37.957031 12.082031 37.367188 11.722656 36.820312 11.308594 C 33.707031 8.945312 31.773438 4.4375 33.804688 0.765625 "/>
<path style=" stroke:none;fill-rule:nonzero;fill:#fff;fill-opacity:1;" d="M 31.105469 45.136719 L 29.125 45.136719 C 29.015625 45.136719 28.90625 45.226562 28.882812 45.332031 L 27.476562 51.839844 C 27.453125 51.949219 27.34375 52.035156 27.234375 52.035156 L 25.832031 52.035156 C 24.445312 52.035156 24.605469 51.074219 24.890625 49.761719 L 24.898438 49.722656 L 24.929688 49.554688 L 24.933594 49.523438 L 24.996094 49.1875 L 25.066406 48.824219 L 25.136719 48.457031 L 25.457031 46.894531 L 25.777344 45.335938 C 25.800781 45.226562 25.726562 45.136719 25.617188 45.136719 L 23.585938 45.136719 C 23.476562 45.136719 23.367188 45.226562 23.34375 45.332031 L 22.46875 49.480469 L 22.46875 49.484375 L 22.429688 49.675781 C 21.925781 51.976562 22.058594 54.167969 24.796875 54.238281 L 29.167969 54.238281 C 29.28125 54.238281 29.390625 54.152344 29.410156 54.042969 L 30.339844 49.6875 L 31.265625 45.335938 C 31.289062 45.226562 31.214844 45.140625 31.105469 45.136719 Z M 9.890625 45.117188 L 7.71875 45.117188 C 7.605469 45.117188 7.496094 45.203125 7.472656 45.308594 L 7.265625 46.21875 L 7.058594 47.132812 C 7.035156 47.238281 7.105469 47.324219 7.214844 47.324219 L 9.410156 47.324219 C 9.519531 47.324219 9.628906 47.238281 9.652344 47.128906 L 9.851562 46.21875 L 10.050781 45.3125 C 10.074219 45.203125 10.003906 45.117188 9.890625 45.117188 Z M 9.261719 47.949219 L 7.070312 47.949219 C 6.960938 47.949219 6.847656 48.035156 6.824219 48.144531 L 6.515625 49.507812 L 6.210938 50.871094 L 6.125 51.261719 L 5.828125 52.652344 L 5.53125 54.046875 C 5.507812 54.152344 5.460938 54.328125 5.425781 54.433594 C 5.425781 54.433594 5.015625 55.652344 4.328125 55.636719 L 4.242188 55.632812 L 3.644531 55.625 C 3.535156 55.621094 3.425781 55.707031 3.398438 55.816406 L 3.171875 56.769531 L 2.945312 57.726562 C 2.921875 57.832031 2.988281 57.921875 3.097656 57.921875 C 3.488281 57.925781 4.363281 57.9375 4.894531 57.9375 C 6.613281 57.9375 7.519531 56.984375 8.101562 54.242188 L 8.78125 51.09375 L 9.417969 48.144531 C 9.441406 48.035156 9.371094 47.949219 9.261719 47.949219 Z M 49.628906 47.210938 L 49.539062 46.835938 L 49.449219 46.449219 L 49.402344 46.257812 C 49.222656 45.5625 48.703125 45.164062 47.566406 45.164062 L 45.800781 45.164062 L 44.171875 45.160156 L 42.339844 45.160156 C 42.230469 45.160156 42.121094 45.25 42.097656 45.355469 L 42.019531 45.738281 L 41.921875 46.191406 L 41.894531 46.316406 L 41.070312 50.179688 L 40.289062 53.847656 C 40.265625 53.953125 40.257812 54.085938 40.269531 54.140625 C 40.285156 54.195312 40.496094 54.238281 40.605469 54.238281 L 42.257812 54.238281 C 42.367188 54.238281 42.503906 54.21875 42.566406 54.195312 C 42.625 54.171875 42.714844 53.953125 42.738281 53.847656 L 43.324219 50.941406 L 43.324219 50.9375 L 43.363281 50.746094 L 43.71875 49.078125 L 44.035156 47.601562 C 44.058594 47.496094 44.167969 47.40625 44.277344 47.40625 L 49.472656 47.40625 C 49.582031 47.40625 49.652344 47.316406 49.628906 47.210938 Z M 56.320312 43.816406 L 54.257812 43.816406 C 54.144531 43.816406 54.003906 43.894531 53.941406 43.984375 L 50.265625 49.375 C 50.203125 49.464844 50.132812 49.453125 50.105469 49.34375 L 49.835938 48.15625 C 49.8125 48.050781 49.703125 47.960938 49.589844 47.960938 L 47.226562 47.960938 C 47.117188 47.960938 47.050781 48.046875 47.082031 48.152344 L 48.140625 51.867188 C 48.171875 51.972656 48.171875 52.144531 48.144531 52.253906 L 47.683594 54.050781 C 47.65625 54.15625 47.722656 54.242188 47.835938 54.242188 L 50.171875 54.242188 C 50.28125 54.242188 50.394531 54.15625 50.421875 54.050781 L 50.882812 52.253906 C 50.910156 52.144531 50.988281 51.988281 51.054688 51.898438 L 57.027344 43.972656 C 57.09375 43.882812 57.058594 43.8125 56.949219 43.8125 Z M 37.53125 48.464844 C 37.515625 48.582031 37.40625 48.671875 37.296875 48.671875 L 34.296875 48.671875 C 34.191406 48.671875 34.140625 48.601562 34.15625 48.515625 L 34.160156 48.507812 L 34.15625 48.507812 L 34.160156 48.496094 L 34.171875 48.445312 C 34.457031 47.683594 35.042969 47.1875 36.136719 47.1875 C 37.371094 47.183594 37.613281 47.789062 37.53125 48.464844 Z M 36.648438 45.003906 C 32.800781 45.003906 31.886719 47.339844 31.375 49.699219 C 30.867188 52.101562 30.910156 54.351562 34.890625 54.351562 L 35.523438 54.351562 L 36 54.347656 L 36.011719 54.347656 C 37.0625 54.34375 38.117188 54.335938 38.542969 54.332031 C 38.652344 54.332031 38.761719 54.242188 38.78125 54.136719 L 38.945312 53.347656 L 38.976562 53.195312 L 39.167969 52.253906 C 39.1875 52.148438 39.117188 52.058594 39.007812 52.058594 L 35.425781 52.058594 C 34.003906 52.058594 33.578125 51.679688 33.734375 50.566406 L 39.460938 50.566406 L 39.457031 50.566406 L 39.460938 50.566406 C 39.554688 50.566406 39.636719 50.503906 39.671875 50.417969 L 39.683594 50.371094 C 40.535156 47.164062 40.289062 45.003906 36.648438 45.003906 Z M 18.457031 48.453125 L 18.402344 48.644531 L 17.972656 50.179688 L 17.539062 51.710938 C 17.507812 51.816406 17.394531 51.902344 17.285156 51.902344 L 14.996094 51.902344 C 13.261719 51.902344 12.839844 50.542969 13.261719 48.542969 C 13.683594 46.496094 14.511719 45.222656 16.21875 45.09375 C 18.554688 44.917969 19.019531 46.558594 18.457031 48.453125 Z M 20.027344 51.785156 C 20.027344 51.785156 21.105469 49.164062 21.351562 47.652344 C 21.683594 45.628906 20.671875 42.691406 16.753906 42.691406 C 12.859375 42.691406 11.167969 45.496094 10.523438 48.542969 C 9.878906 51.613281 10.726562 54.304688 14.597656 54.285156 L 17.652344 54.273438 L 20.503906 54.261719 C 20.613281 54.261719 20.726562 54.175781 20.753906 54.066406 L 21.253906 52.171875 C 21.28125 52.066406 21.214844 51.976562 21.101562 51.976562 L 20.625 51.972656 L 20.148438 51.972656 C 20.054688 51.96875 20.003906 51.910156 20.015625 51.828125 Z M 39.300781 50.03125 C 39.300781 50.105469 39.242188 50.164062 39.171875 50.164062 C 39.097656 50.164062 39.039062 50.105469 39.039062 50.03125 C 39.039062 49.957031 39.097656 49.898438 39.171875 49.898438 C 39.242188 49.898438 39.300781 49.957031 39.300781 50.03125 Z M 39.300781 50.03125 "/>
</g>
</svg>
