<?xml version="1.0" encoding="UTF-8"?>
<svg xmlns="http://www.w3.org/2000/svg" xmlns:xlink="http://www.w3.org/1999/xlink" width="60px" height="60px" viewBox="0 0 60 60" version="1.1">
<g id="surface1">
<path style=" stroke:none;fill-rule:nonzero;fill:#fff;fill-opacity:1;" d="M 14.222656 31.859375 L 22.015625 31.859375 L 22.015625 37.496094 L 11.316406 37.496094 C 11.085938 37.496094 10.898438 37.3125 10.898438 37.082031 L 10.898438 35.097656 C 10.898438 34.867188 11.085938 34.679688 11.316406 34.679688 L 14.222656 34.679688 Z M 3.765625 27.402344 L 3.765625 3.738281 C 3.765625 3.476562 3.980469 3.265625 4.238281 3.265625 L 33.238281 3.265625 C 33.496094 3.265625 33.710938 3.476562 33.710938 3.738281 L 33.710938 13.589844 L 37.472656 13.589844 L 37.472656 1.640625 C 37.472656 0.734375 36.742188 0 35.832031 0 L 1.644531 0 C 0.734375 0 0 0.734375 0 1.640625 L 0 29.519531 C 0 30.425781 0.734375 31.164062 1.644531 31.164062 L 22.015625 31.164062 L 22.015625 27.871094 L 4.238281 27.871094 C 3.980469 27.871094 3.765625 27.660156 3.765625 27.402344 Z M 46.15625 18.703125 L 25.066406 18.703125 L 25.066406 43.171875 L 36.558594 43.171875 L 36.558594 44.59375 L 34.503906 44.59375 C 34.339844 44.59375 34.203125 44.726562 34.203125 44.890625 L 34.203125 45.039062 C 34.203125 45.207031 34.339844 45.339844 34.503906 45.339844 L 36.558594 45.339844 L 36.558594 47.339844 L 25.015625 47.339844 C 23.882812 47.339844 22.953125 46.414062 22.953125 45.28125 L 22.953125 16.589844 C 22.953125 15.460938 23.882812 14.527344 25.015625 14.527344 L 46.203125 14.527344 C 47.339844 14.527344 48.265625 15.460938 48.265625 16.589844 L 48.265625 26.253906 L 46.15625 26.253906 Z M 36.113281 16.261719 C 36.113281 15.960938 35.867188 15.714844 35.5625 15.714844 C 35.261719 15.714844 35.015625 15.960938 35.015625 16.261719 C 35.015625 16.566406 35.261719 16.808594 35.5625 16.808594 C 35.867188 16.808594 36.113281 16.566406 36.113281 16.261719 Z M 60 30.460938 L 60 56.726562 C 59.996094 58.535156 58.539062 59.996094 56.726562 60 L 40.769531 60 C 38.960938 59.996094 37.503906 58.535156 37.496094 56.726562 L 37.496094 30.460938 C 37.503906 28.652344 38.960938 27.191406 40.769531 27.191406 L 56.726562 27.191406 C 58.539062 27.191406 59.996094 28.652344 60 30.460938 Z M 46.867188 28.425781 C 46.867188 28.621094 47.019531 28.773438 47.210938 28.773438 L 50.285156 28.773438 C 50.476562 28.773438 50.632812 28.621094 50.632812 28.425781 C 50.632812 28.234375 50.476562 28.082031 50.285156 28.082031 L 47.210938 28.082031 C 47.019531 28.082031 46.867188 28.234375 46.867188 28.425781 Z M 49.773438 57.425781 C 49.773438 56.855469 49.316406 56.398438 48.746094 56.398438 C 48.183594 56.398438 47.722656 56.855469 47.722656 57.425781 C 47.722656 57.988281 48.183594 58.449219 48.746094 58.449219 C 49.316406 58.449219 49.773438 57.988281 49.773438 57.425781 Z M 57.621094 30.757812 C 57.621094 30.273438 57.214844 29.863281 56.726562 29.863281 L 40.769531 29.863281 C 40.285156 29.863281 39.878906 30.273438 39.875 30.757812 L 39.875 54.050781 C 39.878906 54.53125 40.285156 54.941406 40.769531 54.941406 L 56.726562 54.941406 C 57.195312 54.941406 57.589844 54.5625 57.617188 54.101562 L 57.621094 54.109375 Z M 57.621094 30.757812 "/>
</g>
</svg>
