<?xml version="1.0" encoding="UTF-8"?>
<svg xmlns="http://www.w3.org/2000/svg" xmlns:xlink="http://www.w3.org/1999/xlink" width="60px" height="60px" viewBox="0 0 60 60" version="1.1">
<g id="surface1">
<path style=" stroke:none;fill-rule:nonzero;fill:#fff;fill-opacity:0;" d="M 10.625 22.03125 L 57.347656 22.03125 L 57.347656 56.5625 L 10.625 56.5625 Z M 10.625 22.03125 "/>
<path style=" stroke:none;fill-rule:nonzero;fill:#fff;fill-opacity:1;" d="M 0.703125 29.957031 L 0.703125 59.253906 L 59.296875 59.253906 L 59.296875 0.660156 L 0.703125 0.660156 Z M 47.921875 27.613281 C 49.324219 27.941406 50.597656 28.671875 51.585938 29.722656 C 52.128906 30.289062 52.601562 30.917969 52.992188 31.597656 C 52.992188 31.671875 50.460938 33.382812 48.917969 34.339844 C 48.863281 34.378906 48.636719 34.132812 48.390625 33.765625 C 47.816406 32.777344 46.777344 32.152344 45.636719 32.109375 C 43.859375 31.988281 42.71875 32.921875 42.726562 34.453125 C 42.710938 34.835938 42.800781 35.214844 42.980469 35.550781 C 43.367188 36.359375 44.09375 36.84375 46.375 37.828125 C 50.570312 39.632812 52.363281 40.824219 53.480469 42.515625 C 54.726562 44.390625 55.003906 47.417969 54.160156 49.660156 C 53.222656 52.097656 50.925781 53.75 47.675781 54.300781 C 46.191406 54.46875 44.695312 54.453125 43.214844 54.253906 C 40.945312 53.878906 38.855469 52.789062 37.25 51.144531 C 36.710938 50.550781 35.664062 49 35.726562 48.886719 C 35.898438 48.757812 36.078125 48.644531 36.265625 48.542969 L 38.4375 47.34375 L 40.121094 46.367188 L 40.472656 46.890625 C 41.066406 47.738281 41.820312 48.460938 42.695312 49.015625 C 44.570312 50 47.128906 49.867188 48.394531 48.726562 C 49.269531 47.867188 49.40625 46.5 48.71875 45.484375 C 48.25 44.832031 47.3125 44.28125 44.691406 43.140625 C 41.667969 41.835938 40.363281 41.03125 39.171875 39.746094 C 38.429688 38.898438 37.882812 37.898438 37.566406 36.816406 C 37.332031 35.578125 37.296875 34.3125 37.460938 33.066406 C 38.085938 30.144531 40.273438 28.105469 43.472656 27.5 C 44.953125 27.320312 46.453125 27.359375 47.921875 27.625 Z M 34.167969 30.070312 L 34.167969 32.46875 L 26.558594 32.46875 L 26.558594 54.140625 L 21.164062 54.140625 L 21.164062 32.464844 L 13.539062 32.464844 L 13.539062 30.121094 C 13.515625 29.3125 13.53125 28.503906 13.59375 27.699219 C 13.632812 27.65625 18.28125 27.65625 23.90625 27.65625 L 34.140625 27.65625 Z M 34.167969 30.070312 "/>
</g>
</svg>
