<svg xmlns="http://www.w3.org/2000/svg" version="1.1" xmlns:xlink="http://www.w3.org/1999/xlink" xmlns:svgjs="http://svgjs.com/svgjs" width="1920" height="3000" preserveAspectRatio="none" viewBox="0 0 1920 3000"><g mask="url(&quot;#SvgjsMask1075&quot;)" fill="none"><path d="M597 2145L596 3647" stroke-width="10" stroke="url(#SvgjsLinearGradient1076)" stroke-linecap="round" class="Down"></path><path d="M1155 2248L1154 1351" stroke-width="6" stroke="url(#SvgjsLinearGradient1077)" stroke-linecap="round" class="Up"></path><path d="M1287 2113L1286 1355" stroke-width="10" stroke="url(#SvgjsLinearGradient1077)" stroke-linecap="round" class="Up"></path><path d="M1115 272L1114 1556" stroke-width="6" stroke="url(#SvgjsLinearGradient1076)" stroke-linecap="round" class="Down"></path><path d="M1076 1846L1075 3967" stroke-width="8" stroke="url(#SvgjsLinearGradient1077)" stroke-linecap="round" class="Up"></path><path d="M474 177L473 2211" stroke-width="8" stroke="url(#SvgjsLinearGradient1077)" stroke-linecap="round" class="Up"></path><path d="M489 5L488 1317" stroke-width="6" stroke="url(#SvgjsLinearGradient1077)" stroke-linecap="round" class="Up"></path><path d="M737 2702L736 1752" stroke-width="6" stroke="url(#SvgjsLinearGradient1076)" stroke-linecap="round" class="Down"></path><path d="M1078 275L1077 1658" stroke-width="6" stroke="url(#SvgjsLinearGradient1077)" stroke-linecap="round" class="Up"></path><path d="M954 2155L953 3767" stroke-width="6" stroke="url(#SvgjsLinearGradient1077)" stroke-linecap="round" class="Up"></path><path d="M676 261L675 -1403" stroke-width="10" stroke="url(#SvgjsLinearGradient1076)" stroke-linecap="round" class="Down"></path><path d="M1422 330L1421 2527" stroke-width="10" stroke="url(#SvgjsLinearGradient1077)" stroke-linecap="round" class="Up"></path><path d="M112 220L111 -560" stroke-width="8" stroke="url(#SvgjsLinearGradient1077)" stroke-linecap="round" class="Up"></path><path d="M500 1061L499 118" stroke-width="6" stroke="url(#SvgjsLinearGradient1077)" stroke-linecap="round" class="Up"></path><path d="M64 2052L63 -95" stroke-width="10" stroke="url(#SvgjsLinearGradient1077)" stroke-linecap="round" class="Up"></path><path d="M1038 2880L1037 4448" stroke-width="8" stroke="url(#SvgjsLinearGradient1076)" stroke-linecap="round" class="Down"></path><path d="M1184 2801L1183 1908" stroke-width="8" stroke="url(#SvgjsLinearGradient1076)" stroke-linecap="round" class="Down"></path><path d="M553 2830L552 1992" stroke-width="8" stroke="url(#SvgjsLinearGradient1077)" stroke-linecap="round" class="Up"></path><path d="M442 804L441 2540" stroke-width="6" stroke="url(#SvgjsLinearGradient1076)" stroke-linecap="round" class="Down"></path><path d="M580 2118L579 3669" stroke-width="6" stroke="url(#SvgjsLinearGradient1077)" stroke-linecap="round" class="Up"></path><path d="M1561 946L1560 2559" stroke-width="8" stroke="url(#SvgjsLinearGradient1077)" stroke-linecap="round" class="Up"></path><path d="M749 268L748 1701" stroke-width="6" stroke="url(#SvgjsLinearGradient1076)" stroke-linecap="round" class="Down"></path><path d="M1795 739L1794 2178" stroke-width="10" stroke="url(#SvgjsLinearGradient1077)" stroke-linecap="round" class="Up"></path><path d="M1720 991L1719 76" stroke-width="6" stroke="url(#SvgjsLinearGradient1076)" stroke-linecap="round" class="Down"></path><path d="M1592 2548L1591 3365" stroke-width="8" stroke="url(#SvgjsLinearGradient1077)" stroke-linecap="round" class="Up"></path><path d="M1097 230L1096 1578" stroke-width="8" stroke="url(#SvgjsLinearGradient1077)" stroke-linecap="round" class="Up"></path><path d="M1835 410L1834 -625" stroke-width="8" stroke="url(#SvgjsLinearGradient1076)" stroke-linecap="round" class="Down"></path><path d="M97 2058L96 3260" stroke-width="6" stroke="url(#SvgjsLinearGradient1076)" stroke-linecap="round" class="Down"></path><path d="M1564 1286L1563 2897" stroke-width="10" stroke="url(#SvgjsLinearGradient1077)" stroke-linecap="round" class="Up"></path><path d="M220 1315L219 261" stroke-width="10" stroke="url(#SvgjsLinearGradient1076)" stroke-linecap="round" class="Down"></path><path d="M1253 2889L1252 3842" stroke-width="10" stroke="url(#SvgjsLinearGradient1077)" stroke-linecap="round" class="Up"></path><path d="M309 404L308 -1363" stroke-width="8" stroke="url(#SvgjsLinearGradient1077)" stroke-linecap="round" class="Up"></path><path d="M1372 1132L1371 3155" stroke-width="8" stroke="url(#SvgjsLinearGradient1077)" stroke-linecap="round" class="Up"></path><path d="M383 568L382 -1183" stroke-width="6" stroke="url(#SvgjsLinearGradient1076)" stroke-linecap="round" class="Down"></path><path d="M1445 1254L1444 -423" stroke-width="10" stroke="url(#SvgjsLinearGradient1077)" stroke-linecap="round" class="Up"></path><path d="M402 2376L401 768" stroke-width="10" stroke="url(#SvgjsLinearGradient1076)" stroke-linecap="round" class="Down"></path><path d="M1346 1636L1345 -119" stroke-width="8" stroke="url(#SvgjsLinearGradient1077)" stroke-linecap="round" class="Up"></path><path d="M179 2630L178 3707" stroke-width="10" stroke="url(#SvgjsLinearGradient1077)" stroke-linecap="round" class="Up"></path><path d="M911 2758L910 4865" stroke-width="6" stroke="url(#SvgjsLinearGradient1076)" stroke-linecap="round" class="Down"></path><path d="M975 1550L974 -17" stroke-width="8" stroke="url(#SvgjsLinearGradient1076)" stroke-linecap="round" class="Down"></path><path d="M971 512L970 1793" stroke-width="10" stroke="url(#SvgjsLinearGradient1076)" stroke-linecap="round" class="Down"></path><path d="M1647 54L1646 2107" stroke-width="6" stroke="url(#SvgjsLinearGradient1076)" stroke-linecap="round" class="Down"></path><path d="M855 2794L854 1537" stroke-width="10" stroke="url(#SvgjsLinearGradient1076)" stroke-linecap="round" class="Down"></path><path d="M228 1248L227 -340" stroke-width="8" stroke="url(#SvgjsLinearGradient1077)" stroke-linecap="round" class="Up"></path><path d="M1306 1533L1305 -154" stroke-width="6" stroke="url(#SvgjsLinearGradient1077)" stroke-linecap="round" class="Up"></path><path d="M1549 2021L1548 1110" stroke-width="8" stroke="url(#SvgjsLinearGradient1076)" stroke-linecap="round" class="Down"></path><path d="M1328 1009L1327 2596" stroke-width="10" stroke="url(#SvgjsLinearGradient1077)" stroke-linecap="round" class="Up"></path><path d="M1534 176L1533 -1401" stroke-width="6" stroke="url(#SvgjsLinearGradient1076)" stroke-linecap="round" class="Down"></path></g><defs><mask id="SvgjsMask1075"><rect width="1920" height="3000" fill="#ffffff"></rect></mask><linearGradient x1="0%" y1="0%" x2="0%" y2="100%" id="SvgjsLinearGradient1076"><stop stop-color="rgba(255, 103, 31, 0)" offset="0"></stop><stop stop-color="rgba(255, 103, 31, 0.2)" offset="1"></stop></linearGradient><linearGradient x1="0%" y1="100%" x2="0%" y2="0%" id="SvgjsLinearGradient1077"><stop stop-color="rgba(255, 103, 31, 0)" offset="0"></stop><stop stop-color="rgba(255, 103, 31, 1)" offset="1"></stop></linearGradient></defs></svg>