<?xml version="1.0" encoding="UTF-8"?>
<svg xmlns="http://www.w3.org/2000/svg" xmlns:xlink="http://www.w3.org/1999/xlink" width="60px" height="60px" viewBox="0 0 60 60" version="1.1">
<g id="surface1">
<path style=" stroke:none;fill-rule:nonzero;fill:#fff;fill-opacity:1;" d="M 21.183594 0.753906 C 10.5 1.945312 1.914062 10.601562 0.753906 21.359375 C 0.550781 23.140625 0.550781 29.390625 0.738281 31.117188 C 1.175781 34.960938 2.335938 38.265625 4.308594 41.296875 C 7.671875 46.488281 12.746094 50.023438 18.792969 51.445312 C 20.429688 51.824219 20.734375 51.835938 23.792969 51.835938 C 26.867188 51.835938 27.160156 51.824219 28.78125 51.429688 C 30.8125 50.953125 32.289062 50.429688 33.957031 49.605469 C 35.292969 48.9375 37.132812 47.851562 37.132812 47.71875 C 37.132812 47.675781 36.554688 47.066406 35.84375 46.355469 L 34.554688 45.066406 L 33.695312 45.589844 C 30.941406 47.253906 27.144531 48.300781 23.792969 48.300781 C 21.109375 48.300781 18.050781 47.617188 15.542969 46.472656 C 11.847656 44.777344 8.207031 41.222656 6.351562 37.496094 C 5.929688 36.628906 5.089844 34.511719 5.089844 34.292969 C 5.089844 34.25 5.554688 34.929688 6.132812 35.785156 C 8.671875 39.597656 12.757812 42.6875 17.152344 44.152344 C 23.113281 46.109375 29.957031 45.253906 35.25 41.863281 L 36.046875 41.355469 L 43.441406 48.71875 C 54.882812 60.101562 54.054688 59.378906 55.765625 59.378906 C 57.230469 59.378906 58.363281 58.695312 59.070312 57.363281 C 59.519531 56.519531 59.507812 54.984375 59.042969 54.097656 C 58.824219 53.664062 56.417969 51.15625 51.621094 46.34375 L 44.527344 39.238281 L 45.09375 37.933594 C 45.761719 36.378906 46.179688 35.003906 46.585938 33.089844 C 46.820312 31.957031 46.890625 30.914062 46.949219 27.421875 C 47.050781 21.75 46.820312 19.664062 45.746094 16.429688 C 42.339844 6.164062 31.988281 -0.449219 21.183594 0.753906 Z M 27.054688 4.597656 C 30.984375 5.21875 34.496094 7.046875 37.511719 10.078125 C 39.859375 12.441406 41.25 14.660156 42.28125 17.75 C 42.933594 19.707031 43.222656 21.578125 43.222656 23.882812 C 43.222656 26.15625 42.933594 27.984375 42.265625 30.03125 C 40.902344 34.132812 38.191406 37.671875 34.554688 40.09375 C 31.40625 42.179688 28.347656 43.164062 24.519531 43.3125 C 21.011719 43.457031 18.285156 42.875 15.167969 41.339844 C 9.628906 38.613281 5.65625 33.335938 4.566406 27.273438 C 4.203125 25.257812 4.234375 21.980469 4.640625 20.066406 C 5.769531 14.6875 8.773438 10.28125 13.324219 7.335938 C 17.355469 4.742188 21.996094 3.8125 27.054688 4.597656 Z M 27.054688 4.597656 "/>
<path style=" stroke:none;fill-rule:nonzero;fill:#fff;fill-opacity:1;" d="M 12.832031 18.851562 C 11.859375 19.199219 11.28125 19.632812 10.933594 20.285156 C 9.84375 22.273438 10.917969 24.011719 13.90625 25.097656 C 15.980469 25.855469 16.253906 26.070312 16.253906 26.96875 C 16.253906 28.320312 13.28125 28.375 12.976562 27.027344 C 12.933594 26.808594 12.875 26.535156 12.832031 26.433594 C 12.804688 26.316406 12.398438 26.257812 11.453125 26.257812 L 10.121094 26.257812 L 10.222656 26.855469 C 10.335938 27.578125 10.742188 28.40625 11.207031 28.828125 C 11.382812 29 11.933594 29.320312 12.410156 29.550781 C 13.195312 29.914062 13.441406 29.957031 14.804688 29.957031 C 16.628906 29.957031 17.441406 29.695312 18.183594 28.882812 C 19.125 27.839844 19.238281 26.550781 18.5 25.316406 C 18.050781 24.535156 17.125 23.941406 15.382812 23.289062 C 13.644531 22.648438 13.296875 22.386719 13.238281 21.734375 C 13.179688 20.996094 13.703125 20.605469 14.761719 20.605469 C 15.398438 20.605469 15.601562 20.675781 15.890625 20.96875 C 16.09375 21.15625 16.253906 21.445312 16.253906 21.621094 C 16.253906 21.894531 16.339844 21.910156 17.644531 21.910156 L 19.050781 21.910156 L 18.949219 21.460938 C 18.703125 20.214844 17.730469 19.15625 16.484375 18.792969 C 15.484375 18.488281 13.746094 18.515625 12.832031 18.851562 Z M 12.832031 18.851562 "/>
<path style=" stroke:none;fill-rule:nonzero;fill:#fff;fill-opacity:1;" d="M 30.667969 18.878906 C 29.042969 19.503906 28 20.980469 27.707031 23.070312 C 27.535156 24.332031 27.621094 25.359375 28.011719 26.722656 C 28.363281 27.957031 29.363281 29.101562 30.492188 29.59375 C 31.636719 30.101562 33.4375 30.085938 34.523438 29.578125 C 35.929688 28.914062 36.800781 27.765625 37.191406 26.113281 C 37.988281 22.765625 36.613281 19.546875 34.058594 18.792969 C 33.03125 18.488281 31.582031 18.53125 30.667969 18.878906 Z M 33.582031 20.953125 C 33.785156 21.082031 34.089844 21.460938 34.261719 21.808594 C 34.566406 22.34375 34.597656 22.621094 34.597656 24.300781 C 34.597656 25.96875 34.554688 26.257812 34.277344 26.78125 C 33.710938 27.855469 32.769531 28.203125 31.726562 27.738281 C 31.21875 27.507812 31.015625 27.304688 30.738281 26.753906 C 30.4375 26.128906 30.390625 25.839844 30.390625 24.300781 C 30.390625 22.738281 30.421875 22.488281 30.753906 21.835938 C 31.332031 20.664062 32.566406 20.285156 33.582031 20.953125 Z M 33.582031 20.953125 "/>
<path style=" stroke:none;fill-rule:nonzero;fill:#fff;fill-opacity:1;" d="M 19.734375 24.300781 L 19.734375 29.886719 L 27.417969 29.886719 L 27.417969 27.855469 L 22.488281 27.855469 L 22.488281 25.097656 L 26.707031 25.097656 L 26.664062 24.113281 L 26.621094 23.140625 L 24.5625 23.097656 L 22.488281 23.054688 L 22.488281 20.75 L 27.417969 20.75 L 27.417969 18.71875 L 19.734375 18.71875 Z M 19.734375 24.300781 "/>
</g>
</svg>
