<?xml version="1.0" encoding="UTF-8"?>
<svg xmlns="http://www.w3.org/2000/svg" xmlns:xlink="http://www.w3.org/1999/xlink" width="56px" height="56px" viewBox="0 0 56 56" version="1.1">
<g id="surface1">
<path style=" stroke:none;fill-rule:nonzero;fill:rgb(100%,100%,100%);fill-opacity:1;" d="M 0.65625 27.960938 L 0.65625 55.304688 L 55.34375 55.304688 L 55.34375 0.617188 L 0.65625 0.617188 Z M 44.726562 25.773438 C 46.035156 26.078125 47.222656 26.761719 48.148438 27.742188 C 48.652344 28.269531 49.09375 28.855469 49.460938 29.492188 C 49.460938 29.558594 47.097656 31.15625 45.65625 32.050781 C 45.605469 32.085938 45.394531 31.855469 45.164062 31.515625 C 44.628906 30.59375 43.660156 30.007812 42.59375 29.96875 C 40.933594 29.855469 39.871094 30.726562 39.878906 32.15625 C 39.863281 32.511719 39.949219 32.867188 40.113281 33.179688 C 40.476562 33.933594 41.152344 34.386719 43.285156 35.304688 C 47.199219 36.992188 48.871094 38.101562 49.914062 39.679688 C 51.078125 41.429688 51.335938 44.257812 50.550781 46.347656 C 49.675781 48.625 47.53125 50.167969 44.496094 50.679688 C 43.113281 50.835938 41.714844 50.824219 40.332031 50.636719 C 38.214844 50.285156 36.265625 49.269531 34.765625 47.734375 C 34.261719 47.179688 33.285156 45.734375 33.34375 45.628906 C 33.503906 45.507812 33.671875 45.402344 33.847656 45.308594 L 35.875 44.1875 L 37.445312 43.277344 L 37.773438 43.765625 C 38.328125 44.554688 39.03125 45.230469 39.847656 45.746094 C 41.597656 46.667969 43.988281 46.542969 45.167969 45.476562 C 45.984375 44.675781 46.113281 43.398438 45.472656 42.453125 C 45.035156 41.84375 44.160156 41.328125 41.710938 40.265625 C 38.890625 39.046875 37.671875 38.296875 36.558594 37.097656 C 35.867188 36.304688 35.355469 35.371094 35.0625 34.363281 C 34.84375 33.207031 34.808594 32.023438 34.964844 30.863281 C 35.546875 28.136719 37.589844 26.230469 40.574219 25.667969 C 41.957031 25.5 43.355469 25.535156 44.726562 25.785156 Z M 31.890625 28.066406 L 31.890625 30.304688 L 24.789062 30.304688 L 24.789062 50.53125 L 19.753906 50.53125 L 19.753906 30.300781 L 12.636719 30.300781 L 12.636719 28.113281 C 12.613281 27.359375 12.628906 26.605469 12.6875 25.851562 C 12.722656 25.8125 17.0625 25.8125 22.3125 25.8125 L 31.863281 25.8125 Z M 31.890625 28.066406 "/>
</g>
</svg>
