<?xml version="1.0" encoding="UTF-8"?>
<svg xmlns="http://www.w3.org/2000/svg" xmlns:xlink="http://www.w3.org/1999/xlink" width="60px" height="49px" viewBox="0 0 60 49" version="1.1">
<g id="surface1">
<path style=" stroke:none;fill-rule:evenodd;fill:#fff;fill-opacity:1;" d="M 50.105469 3.472656 L 51.363281 5.136719 C 51.695312 5.578125 51.613281 6.207031 51.175781 6.539062 L 49.835938 7.558594 C 50.078125 8.210938 50.234375 8.902344 50.300781 9.613281 L 51.820312 9.820312 C 52.363281 9.894531 52.746094 10.402344 52.671875 10.949219 L 52.390625 13.023438 C 52.316406 13.574219 51.8125 13.957031 51.265625 13.878906 L 49.605469 13.652344 C 49.308594 14.300781 48.929688 14.894531 48.480469 15.429688 L 49.414062 16.660156 C 49.746094 17.097656 49.65625 17.726562 49.21875 18.0625 L 47.5625 19.324219 C 47.125 19.65625 46.496094 19.570312 46.167969 19.136719 L 45.148438 17.792969 C 44.5 18.035156 43.8125 18.191406 43.101562 18.257812 L 42.894531 19.785156 C 42.820312 20.332031 42.316406 20.710938 41.769531 20.640625 L 39.703125 20.355469 C 39.160156 20.28125 38.78125 19.773438 38.855469 19.226562 L 39.082031 17.558594 C 38.441406 17.257812 37.84375 16.878906 37.3125 16.433594 L 36.085938 17.367188 C 35.648438 17.699219 35.023438 17.617188 34.691406 17.175781 L 33.433594 15.511719 C 33.101562 15.070312 33.183594 14.441406 33.621094 14.109375 L 34.960938 13.089844 C 34.714844 12.433594 34.5625 11.746094 34.496094 11.039062 L 32.976562 10.828125 C 32.429688 10.753906 32.046875 10.246094 32.125 9.699219 L 32.40625 7.625 C 32.484375 7.078125 32.984375 6.695312 33.53125 6.769531 L 35.191406 7 C 35.488281 6.355469 35.867188 5.753906 36.3125 5.222656 L 35.382812 3.988281 C 35.050781 3.554688 35.132812 2.925781 35.570312 2.59375 L 37.230469 1.328125 C 37.667969 0.996094 38.292969 1.078125 38.625 1.519531 L 39.640625 2.863281 C 40.289062 2.617188 40.976562 2.460938 41.683594 2.398438 L 41.890625 0.871094 C 41.964844 0.324219 42.472656 -0.0625 43.015625 0.0117188 L 45.082031 0.292969 C 45.625 0.367188 46.011719 0.875 45.933594 1.421875 L 45.703125 3.089844 C 46.351562 3.390625 46.945312 3.769531 47.480469 4.21875 L 48.703125 3.285156 C 49.140625 2.949219 49.769531 3.03125 50.105469 3.472656 Z M 14.554688 32.78125 L 14.554688 24.722656 L 18.6875 24.722656 C 19.453125 24.722656 20.039062 24.785156 20.441406 24.921875 C 20.84375 25.054688 21.175781 25.296875 21.417969 25.65625 C 21.667969 26.015625 21.792969 26.449219 21.792969 26.964844 C 21.792969 27.410156 21.695312 27.800781 21.507812 28.121094 C 21.316406 28.449219 21.054688 28.710938 20.722656 28.914062 C 20.515625 29.039062 20.222656 29.148438 19.851562 29.230469 C 20.148438 29.332031 20.363281 29.425781 20.496094 29.527344 C 20.585938 29.597656 20.71875 29.738281 20.886719 29.953125 C 21.058594 30.167969 21.175781 30.339844 21.234375 30.457031 L 22.441406 32.785156 L 19.640625 32.785156 L 18.316406 30.328125 C 18.144531 30.011719 18 29.800781 17.871094 29.707031 C 17.6875 29.585938 17.484375 29.523438 17.261719 29.523438 L 17.042969 29.523438 L 17.042969 32.785156 L 14.554688 32.785156 Z M 23.296875 46.8125 L 18.667969 46.8125 L 18 49 L 13.828125 49 L 18.804688 35.722656 L 23.277344 35.722656 L 28.230469 49 L 23.953125 49 Z M 22.429688 43.933594 L 20.984375 39.160156 L 19.535156 43.933594 Z M 29.191406 35.722656 L 35.988281 35.722656 C 37.472656 35.722656 38.582031 36.074219 39.316406 36.78125 C 40.050781 37.488281 40.417969 38.5 40.417969 39.804688 C 40.417969 41.148438 40.015625 42.195312 39.214844 42.953125 C 38.410156 43.710938 37.179688 44.085938 35.53125 44.085938 L 33.292969 44.085938 L 33.292969 49 L 29.191406 49 Z M 33.292969 41.394531 L 34.296875 41.394531 C 35.089844 41.394531 35.648438 41.257812 35.96875 40.980469 C 36.292969 40.707031 36.453125 40.351562 36.453125 39.925781 C 36.453125 39.511719 36.3125 39.152344 36.035156 38.867188 C 35.757812 38.578125 35.230469 38.429688 34.464844 38.429688 L 33.292969 38.429688 Z M 42.074219 35.722656 L 46.171875 35.722656 L 46.171875 49 L 42.074219 49 Z M 17.042969 27.996094 L 18.089844 27.996094 C 18.199219 27.996094 18.417969 27.957031 18.746094 27.882812 C 18.910156 27.847656 19.046875 27.765625 19.148438 27.628906 C 19.253906 27.492188 19.304688 27.335938 19.304688 27.160156 C 19.304688 26.902344 19.222656 26.695312 19.054688 26.558594 C 18.890625 26.417969 18.585938 26.347656 18.132812 26.347656 L 17.042969 26.347656 Z M 22.917969 24.722656 L 29.550781 24.722656 L 29.550781 26.441406 L 25.40625 26.441406 L 25.40625 27.726562 L 29.25 27.726562 L 29.25 29.367188 L 25.40625 29.367188 L 25.40625 30.953125 L 29.675781 30.953125 L 29.675781 32.777344 L 22.917969 32.777344 Z M 30.261719 30.113281 L 32.617188 29.96875 C 32.664062 30.351562 32.769531 30.640625 32.925781 30.839844 C 33.183594 31.164062 33.550781 31.332031 34.019531 31.332031 C 34.371094 31.332031 34.648438 31.246094 34.835938 31.082031 C 35.027344 30.914062 35.125 30.71875 35.125 30.5 C 35.125 30.289062 35.03125 30.105469 34.851562 29.9375 C 34.671875 29.773438 34.25 29.621094 33.582031 29.46875 C 32.5 29.226562 31.726562 28.898438 31.257812 28.492188 C 30.792969 28.085938 30.558594 27.570312 30.558594 26.941406 C 30.558594 26.523438 30.679688 26.132812 30.917969 25.765625 C 31.15625 25.402344 31.515625 25.109375 32 24.898438 C 32.480469 24.6875 33.136719 24.585938 33.972656 24.585938 C 35 24.585938 35.777344 24.777344 36.316406 25.160156 C 36.851562 25.546875 37.171875 26.152344 37.273438 26.992188 L 34.945312 27.136719 C 34.882812 26.769531 34.75 26.5 34.554688 26.339844 C 34.355469 26.171875 34.078125 26.089844 33.734375 26.089844 C 33.445312 26.089844 33.226562 26.152344 33.082031 26.273438 C 32.9375 26.398438 32.863281 26.546875 32.863281 26.722656 C 32.863281 26.851562 32.925781 26.964844 33.042969 27.070312 C 33.160156 27.175781 33.433594 27.277344 33.871094 27.371094 C 34.953125 27.605469 35.730469 27.84375 36.199219 28.082031 C 36.664062 28.320312 37.011719 28.621094 37.21875 28.976562 C 37.433594 29.328125 37.539062 29.726562 37.539062 30.167969 C 37.539062 30.683594 37.398438 31.160156 37.113281 31.59375 C 36.832031 32.027344 36.433594 32.359375 35.921875 32.585938 C 35.410156 32.808594 34.769531 32.921875 33.992188 32.921875 C 32.628906 32.921875 31.683594 32.660156 31.15625 32.132812 C 30.632812 31.59375 30.335938 30.925781 30.261719 30.113281 Z M 37.902344 24.722656 L 45.441406 24.722656 L 45.441406 26.714844 L 42.914062 26.714844 L 42.914062 32.78125 L 40.433594 32.78125 L 40.433594 26.714844 L 37.902344 26.714844 Z M 29.558594 5.597656 C 28.667969 5.527344 27.769531 5.539062 26.878906 5.625 C 24.140625 5.890625 21.480469 6.890625 19.285156 8.605469 C 16.742188 10.582031 14.8125 13.542969 14.066406 17.464844 L 13.832031 18.691406 L 12.617188 18.90625 C 11.425781 19.117188 10.363281 19.402344 9.429688 19.769531 C 8.523438 20.121094 7.71875 20.554688 7.011719 21.070312 C 6.449219 21.480469 5.960938 21.9375 5.550781 22.4375 C 4.269531 23.976562 3.675781 25.902344 3.691406 27.859375 C 3.707031 29.839844 4.347656 31.84375 5.535156 33.488281 C 5.976562 34.097656 6.488281 34.660156 7.070312 35.148438 C 7.664062 35.644531 8.328125 36.054688 9.078125 36.359375 C 9.5 36.535156 9.953125 36.683594 10.425781 36.800781 L 10.425781 40.457031 C 9.453125 40.28125 8.558594 40.019531 7.722656 39.671875 C 6.617188 39.210938 5.640625 38.621094 4.78125 37.898438 C 3.964844 37.214844 3.25 36.4375 2.640625 35.59375 C 1.023438 33.347656 0.148438 30.601562 0.128906 27.867188 C 0.109375 25.101562 0.964844 22.355469 2.8125 20.125 C 3.410156 19.402344 4.113281 18.738281 4.921875 18.152344 C 5.859375 17.46875 6.933594 16.894531 8.148438 16.417969 C 8.988281 16.09375 9.882812 15.820312 10.824219 15.597656 C 11.894531 11.332031 14.175781 8.042969 17.105469 5.761719 C 19.847656 3.628906 23.148438 2.382812 26.546875 2.054688 C 28.332031 1.886719 30.140625 1.964844 31.910156 2.296875 C 31.871094 2.457031 31.835938 2.617188 31.820312 2.785156 L 31.8125 2.8125 C 31.78125 3.089844 31.765625 3.371094 31.78125 3.652344 C 31.40625 3.800781 31.054688 4 30.738281 4.242188 L 30.722656 4.253906 C 30.253906 4.609375 29.855469 5.070312 29.558594 5.597656 Z M 55.28125 14.972656 C 55.554688 15.222656 55.816406 15.480469 56.074219 15.761719 C 56.59375 16.320312 57.085938 16.957031 57.546875 17.664062 C 59.105469 20.066406 59.902344 23.277344 59.867188 26.417969 C 59.832031 29.5 59.007812 32.566406 57.316406 34.820312 C 56.210938 36.292969 54.796875 37.492188 53.097656 38.445312 C 51.9375 39.101562 50.628906 39.640625 49.203125 40.082031 L 49.203125 36.296875 C 49.972656 36.007812 50.6875 35.6875 51.34375 35.320312 C 52.621094 34.601562 53.667969 33.726562 54.449219 32.679688 C 55.667969 31.050781 56.265625 28.75 56.289062 26.390625 C 56.316406 23.917969 55.714844 21.429688 54.542969 19.625 C 54.207031 19.101562 53.839844 18.632812 53.449219 18.210938 C 53.296875 18.050781 53.148438 17.898438 52.992188 17.753906 C 53.015625 17.507812 53.027344 17.257812 53.011719 17.011719 C 53.386719 16.863281 53.734375 16.664062 54.050781 16.417969 L 54.066406 16.410156 C 54.566406 16.023438 54.984375 15.535156 55.28125 14.972656 Z M 42.953125 6.25 C 45.195312 6.558594 46.757812 8.632812 46.453125 10.886719 C 46.148438 13.136719 44.082031 14.714844 41.839844 14.40625 C 39.597656 14.101562 38.027344 12.023438 38.339844 9.773438 C 38.648438 7.519531 40.710938 5.945312 42.953125 6.25 Z M 42.953125 6.25 "/>
</g>
</svg>
