<?xml version="1.0" encoding="UTF-8"?>
<svg xmlns="http://www.w3.org/2000/svg" xmlns:xlink="http://www.w3.org/1999/xlink" width="60px" height="57px" viewBox="0 0 59 57" version="1.1">
<g id="surface1">
<path style=" stroke:none;fill-rule:nonzero;fill:#fff;fill-opacity:1;" d="M 40.878906 39.648438 C 43.058594 39.421875 44.710938 37.519531 44.632812 35.234375 C 44.558594 32.953125 42.683594 31.125 40.429688 31.125 L 40.28125 31.125 C 37.953125 31.203125 36.152344 33.179688 36.226562 35.539062 C 36.300781 36.683594 36.75 37.671875 37.425781 38.355469 C 34.875 43.453125 30.96875 47.183594 25.113281 50.304688 C 21.132812 52.433594 17.003906 53.195312 12.875 52.664062 C 9.496094 52.207031 6.871094 50.683594 5.21875 48.171875 C 2.816406 44.445312 2.589844 40.410156 4.617188 36.378906 C 6.042969 33.484375 8.296875 31.355469 9.722656 30.289062 C 9.421875 29.300781 8.972656 27.625 8.746094 26.410156 C -2.140625 34.398438 -1.015625 45.203125 2.289062 50.304688 C 4.765625 54.109375 9.796875 56.46875 15.355469 56.46875 C 16.855469 56.46875 18.355469 56.316406 19.859375 55.933594 C 29.46875 54.03125 36.75 48.25 40.878906 39.648438 Z M 54.09375 30.214844 C 48.390625 23.441406 39.980469 19.710938 30.371094 19.710938 L 29.167969 19.710938 C 28.492188 18.34375 27.066406 17.429688 25.488281 17.429688 L 25.339844 17.429688 C 23.011719 17.503906 21.210938 19.484375 21.285156 21.84375 C 21.359375 24.125 23.238281 25.953125 25.488281 25.953125 L 25.640625 25.953125 C 27.292969 25.875 28.71875 24.808594 29.320312 23.363281 L 30.667969 23.363281 C 36.375 23.363281 41.78125 25.039062 46.660156 28.3125 C 50.414062 30.824219 53.117188 34.09375 54.621094 38.050781 C 55.898438 41.246094 55.820312 44.367188 54.46875 47.03125 C 52.367188 51.066406 48.839844 53.273438 44.183594 53.273438 C 41.179688 53.273438 38.328125 52.359375 36.828125 51.671875 C 36 52.433594 34.5 53.652344 33.449219 54.414062 C 36.675781 55.933594 39.980469 56.773438 43.132812 56.773438 C 50.339844 56.773438 55.671875 52.738281 57.699219 48.707031 C 59.875 44.292969 59.726562 36.683594 54.09375 30.214844 Z M 15.953125 40.941406 C 16.03125 43.226562 17.90625 45.050781 20.160156 45.050781 L 20.308594 45.050781 C 22.636719 44.976562 24.4375 42.996094 24.363281 40.640625 C 24.289062 38.355469 22.410156 36.53125 20.160156 36.53125 L 20.007812 36.53125 C 19.859375 36.53125 19.632812 36.53125 19.484375 36.605469 C 16.40625 31.429688 15.128906 25.800781 15.578125 19.710938 C 15.878906 15.144531 17.378906 11.1875 20.007812 7.917969 C 22.1875 5.101562 26.390625 3.730469 29.242188 3.65625 C 37.203125 3.503906 40.582031 13.546875 40.804688 17.582031 C 41.78125 17.808594 43.433594 18.34375 44.558594 18.722656 C 43.660156 6.394531 36.152344 0.00390625 28.941406 0.00390625 C 22.1875 0.00390625 15.953125 4.949219 13.476562 12.253906 C 10.023438 21.996094 12.273438 31.355469 16.480469 38.738281 C 16.105469 39.269531 15.878906 40.105469 15.953125 40.945312 Z M 15.953125 40.941406 "/>
</g>
</svg>
